<?xml version="1.0" standalone="no"?>
<!DOCTYPE svg PUBLIC "-//W3C//DTD SVG 20010904//EN"
 "http://www.w3.org/TR/2001/REC-SVG-20010904/DTD/svg10.dtd">
<svg version="1.0" xmlns="http://www.w3.org/2000/svg"
 width="512.000000pt" height="512.000000pt" viewBox="0 0 512.000000 512.000000"
 preserveAspectRatio="xMidYMid meet">

<g transform="translate(0.000000,512.000000) scale(0.100000,-0.100000)"
fill="#000000" stroke="none">
<path d="M3911 4400 c-123 -44 -342 -197 -552 -386 l-71 -64 -1244 0 -1243 0
-35 -31 c-20 -17 -40 -47 -46 -67 -6 -24 -10 -425 -10 -1149 l0 -1113 1850 0
1850 0 0 1113 c0 724 -4 1125 -10 1149 -6 20 -26 50 -46 67 l-35 31 -229 0
c-141 0 -230 4 -230 10 0 5 25 47 57 92 71 105 134 235 140 291 9 77 -39 95
-146 57z m-875 -702 c-65 -73 -264 -316 -276 -339 -7 -12 18 -43 109 -133
l118 -118 124 99 c166 133 330 284 468 431 l114 122 253 0 254 0 0 -980 0
-980 -1640 0 -1640 0 0 980 0 980 1086 0 1087 0 -57 -62z"/>
<path d="M2592 3249 c-80 -31 -148 -104 -204 -219 -56 -114 -88 -207 -95 -277
-7 -64 9 -76 60 -44 60 37 119 52 249 65 86 9 139 20 165 33 48 25 106 100
127 166 l17 51 -123 123 c-68 68 -127 123 -133 122 -5 0 -34 -9 -63 -20z"/>
<path d="M1940 1110 l0 -170 -77 0 c-128 0 -171 -39 -180 -164 l-6 -76 883 0
883 0 -6 76 c-9 125 -52 164 -179 164 l-78 0 0 170 0 170 -620 0 -620 0 0
-170z"/>
</g>
</svg>
